<svg width="32" height="34" viewBox="0 0 32 34" fill="none" xmlns="http://www.w3.org/2000/svg">
<path fill-rule="evenodd" clip-rule="evenodd" d="M0 17.37L0.00162526 17.1997L0.00497677 17.0292L0.0100632 16.8588L0.0168758 16.6884L0.0254316 16.518L0.0357136 16.3475L0.0477389 16.1772L0.0614905 16.0069L0.0769852 15.8366L0.0942148 15.6664L0.113179 15.4964L0.13387 15.3264L0.156303 15.1565L0.180472 14.9869L0.206366 14.8174L0.233996 14.6481L0.26336 14.479L0.294442 14.3102L0.327259 14.1415L0.361802 13.9731L0.398071 13.805L0.436051 13.6372L0.475764 13.4698L0.517179 13.3026L0.56032 13.1358L0.605162 12.9693L0.651722 12.8032L0.699983 12.6375L0.749945 12.4723L0.8016 12.3075L0.854956 12.1431L0.910004 11.9791L0.966737 11.8157L1.02515 11.6527L1.08524 11.4903L1.147 11.3284L1.21043 11.167L1.27553 11.0062L1.34228 10.8461L1.41069 10.6865L1.48074 10.5274L1.55244 10.3691L1.62577 10.2114L1.70073 10.0543L1.77732 9.89791L1.85553 9.74228L1.93534 9.58732L2.01677 9.43305L2.09978 9.27962L2.18439 9.12688L2.27059 8.97489L2.35835 8.82377L2.44769 8.6734L2.53859 8.52389L2.63104 8.37522L2.72504 8.22741L2.82057 8.08053L2.91764 7.93441L3.01623 7.78932L3.11633 7.64507L3.21793 7.50176L3.32102 7.35947L3.4256 7.21803L3.53165 7.0777L3.63918 6.93829L3.74816 6.79986L3.85859 6.6625L3.97045 6.52618L4.08374 6.39091L4.19845 6.25671L4.31457 6.12359L4.43208 5.99157L4.55097 5.86067L4.67125 5.73089L4.79288 5.60225L4.91587 5.47477L5.0402 5.34845L5.16586 5.22331L5.29284 5.09937L5.42113 4.97664L5.55071 4.85514L5.68157 4.73487L5.81371 4.61585L5.94711 4.49809L6.08175 4.3816L6.21762 4.26641L6.35472 4.15251L6.49303 4.03993L6.63253 3.92867L6.77322 3.81875L6.91503 3.71019L7.05811 3.60298L7.20227 3.49715L7.34754 3.39272L7.49389 3.28967L7.64143 3.18804L7.78998 3.08781L7.93962 2.98903L8.09036 2.89169L8.24219 2.79581L8.39495 2.70139L8.5488 2.60845L8.70358 2.51699L8.85937 2.42704L9.01617 2.33859L9.17389 2.25166L9.33255 2.16625L9.49213 2.08239L9.65263 2.00007L9.81406 1.91931L9.97634 1.84011L10.1395 1.76249L10.3035 1.68646L10.4684 1.61203L10.634 1.53919L10.8005 1.46797L10.9677 1.39837L11.1357 1.33039L11.3045 1.26405L11.474 1.19937L11.6442 1.13632L11.8152 1.07495L11.9868 1.01524L12.1591 0.957202L12.332 0.900855L12.5055 0.846192L12.6797 0.793228L12.8546 0.741974L13.0299 0.692427L13.2059 0.644589L13.3824 0.598477L13.5594 0.554098L13.7369 0.511462L13.915 0.470552L14.0936 0.4314L14.2725 0.393992L14.452 0.358343L14.6318 0.324462L14.8121 0.292341L14.9928 0.261995L15.1739 0.233427L15.3553 0.206635L15.537 0.181637L15.7191 0.158423L15.9015 0.137003L16.0841 0.117368L16.267 0.099552L16.4502 0.0835295L16.6336 0.0693091L16.8172 0.0569076L17.8045 0L17.8608 4.80137L17.8931 4.801L18.0294 4.8008L18.1657 4.80196L18.3021 4.80446L18.4386 4.80833L18.575 4.81355L18.7115 4.82011L18.848 4.82804L18.9845 4.83733L19.1209 4.84797L19.2574 4.85997L19.3938 4.87333L19.5301 4.88805L19.6663 4.90413L19.8024 4.92156L19.9384 4.94035L20.0744 4.9605L20.2101 4.98201L20.3458 5.00488L20.4812 5.02909L20.6165 5.05467L20.7516 5.0816L20.8864 5.10989L21.0211 5.13952L21.1555 5.1705L21.2897 5.20282L21.4237 5.2365L21.5573 5.27153L21.6906 5.30789L21.8237 5.3456L21.9565 5.38464L22.0888 5.42501L22.2209 5.46672L22.3526 5.50977L22.484 5.55414L22.6149 5.59983L22.7454 5.64684L22.8756 5.69516L23.0053 5.74481L23.1346 5.79576L23.2634 5.84803L23.3917 5.90159L23.5196 5.95645L23.647 6.01261L23.7739 6.07006L23.9002 6.1288L24.026 6.18881L24.1513 6.2501L24.276 6.31267L24.4002 6.3765L24.5237 6.4416L24.6467 6.50795L24.769 6.57556L24.8907 6.64441L25.0118 6.7145L25.1322 6.78582L25.252 6.8584L25.371 6.93218L25.4894 7.00715L25.6071 7.08339L25.724 7.16074L25.8403 7.23937L25.9558 7.31918L26.0705 7.4001L26.1845 7.4823L26.2977 7.56559L26.41 7.65009L26.5217 7.73576L26.6324 7.82255L26.7424 7.91053L26.8515 7.99952L26.9597 8.0897L27.0671 8.18108L27.1736 8.27347L27.2793 8.36698L27.3841 8.46158L27.4878 8.55729L27.5907 8.65411L27.6927 8.75194L27.7938 8.85079L27.8938 8.95076L27.9929 9.05174L28.091 9.15382L28.1882 9.25684L28.2843 9.36088L28.3795 9.46594L28.4735 9.57202L28.5666 9.67904L28.6586 9.78707L28.7496 9.89604L28.8395 10.0059L28.9283 10.1169L29.0161 10.2286L29.1027 10.3414L29.1883 10.455L29.2728 10.5696L29.356 10.685L29.4382 10.8014L29.5192 10.9186L29.5992 11.0366L29.6779 11.1555L29.7555 11.2753L29.8318 11.3959L29.9069 11.5172L29.981 11.6394L30.0537 11.7624L30.1253 11.8861L30.1956 12.0107L30.2648 12.136L30.3326 12.262L30.3992 12.3888L30.4646 12.5163L30.5287 12.6444L30.5915 12.7733L30.6531 12.9029L30.7133 13.0331L30.7723 13.164L30.83 13.2956L30.8863 13.4278L30.9413 13.5606L30.995 13.694L31.0474 13.8281L31.0984 13.9626L31.1481 14.0978L31.1965 14.2335L31.2435 14.3698L31.2891 14.5066L31.3334 14.644L31.3763 14.7818L31.4178 14.92L31.4579 15.0589L31.4966 15.1981L31.5339 15.3378L31.5699 15.478L31.6043 15.6185L31.6375 15.7595L31.6691 15.9009L31.6994 16.0426L31.7283 16.1847L31.7556 16.3272L31.7816 16.47L31.8061 16.6132L31.8292 16.7566L31.8509 16.9003L31.8711 17.0444L31.8898 17.1886L31.907 17.3332L31.9229 17.478L31.9372 17.623L31.9501 17.7681L31.9615 17.9136L31.9715 18.0592L31.9799 18.205L31.9869 18.3508L31.9924 18.4969L31.9964 18.6431L31.999 18.7893L32 18.9357L31.9996 19.0822L31.9976 19.2287L31.9942 19.3753L31.9893 19.5219L31.9829 19.6685L31.9751 19.8151L31.9656 19.9617L31.9548 20.1084L31.9424 20.2549L31.9285 20.4014L31.9132 20.5479L31.8963 20.6942L31.8779 20.8405L31.8581 20.9866L31.8367 21.1326L31.8139 21.2785L31.7896 21.4242L31.7637 21.5697L31.7364 21.715L31.7076 21.8602L31.6773 22.0051L31.6455 22.1498L31.6122 22.2943L31.5775 22.4385L31.5412 22.5824L31.5035 22.7259L31.4643 22.8693L31.4237 23.0122L31.3816 23.1548L31.3379 23.2972L31.2928 23.4391L31.2463 23.5807L31.1983 23.7218L31.1488 23.8626L31.0979 24.0029L31.0456 24.1427L30.9917 24.2821L30.9365 24.4211L30.8798 24.5596L30.8217 24.6975L30.7622 24.835L30.7012 24.9719L30.6388 25.1083L30.575 25.2442L30.5098 25.3794L30.4431 25.5141L30.3752 25.6482L30.3057 25.7817L30.2349 25.9145L30.1627 26.0467L30.0892 26.1782L30.0142 26.3091L29.9379 26.4393L29.8603 26.5688L29.7813 26.6977L29.7009 26.8257L29.6192 26.953L29.5363 27.0796L29.4519 27.2054L29.3662 27.3304L29.2792 27.4547L29.191 27.5781L29.1014 27.7007L29.0105 27.8225L28.9184 27.9435L28.825 28.0635L28.7304 28.1828L28.6344 28.3011L28.5373 28.4185L28.4388 28.535L28.3392 28.6506L28.2383 28.7653L28.1363 28.879L28.033 28.9918L27.9286 29.1036L27.8229 29.2144L27.7161 29.3242L27.6081 29.4329L27.4989 29.5407L27.3887 29.6475L27.2773 29.7532L27.1648 29.8579L27.0511 29.9615L26.9363 30.0639L26.8205 30.1653L26.7036 30.2657L26.5856 30.3649L26.4665 30.4629L26.3464 30.5599L26.2253 30.6557L26.1031 30.7503L25.9799 30.8437L25.8557 30.936L25.7305 31.0271L25.6043 31.117L25.4771 31.2057L25.3491 31.2932L25.22 31.3794L25.09 31.4644L24.9592 31.5482L24.8274 31.6306L24.6947 31.7119L24.561 31.7918L24.4265 31.8705L24.2913 31.9478L24.155 32.0238L24.0181 32.0986L23.8803 32.172L23.7416 32.2441L23.6022 32.3149L23.462 32.3842L23.321 32.4522L23.1793 32.519L23.0368 32.5842L22.8936 32.6482L22.7497 32.7106L22.6051 32.7718L22.4599 32.8315L22.3139 32.8898L22.1673 32.9467L22.02 33.0022L21.8722 33.0562L21.7236 33.1088L21.5746 33.1599L21.4249 33.2096L21.2746 33.2578L21.1238 33.3045L20.9725 33.3498L20.8206 33.3936L20.6682 33.4359L20.5154 33.4768L20.3619 33.5161L20.2082 33.5539L20.0539 33.5903L19.8991 33.6251L19.744 33.6584L19.5885 33.6902L19.4325 33.7204L19.2762 33.7492L19.1196 33.7763L18.9625 33.8019L18.8052 33.8261L18.6475 33.8486L18.4896 33.8696L18.3314 33.8891L18.1728 33.9069L18.0141 33.9232L17.8551 33.938L17.6959 33.9512L17.5365 33.9629L17.3769 33.9729L17.2171 33.9814L17.0572 33.9883L16.8972 33.9935L16.7369 33.9973L16.5767 33.9994L16.4163 34L16.2558 33.999L16.0953 33.9963L15.9347 33.9922L15.7741 33.9863L15.6136 33.9789L15.453 33.97L15.2925 33.9594L15.1319 33.9472L14.9715 33.9334L14.811 33.9181L14.6507 33.9011L14.4905 33.8826L14.3304 33.8625L14.1704 33.8407L14.0107 33.8173L13.851 33.7924L13.6916 33.7659L13.5324 33.7379L13.3733 33.7081L13.2146 33.6768L13.056 33.644L12.8978 33.6095L12.7397 33.5735L12.5821 33.5359L12.4247 33.4967L12.2676 33.4559L12.1109 33.4136L11.9546 33.3697L11.7987 33.3243L11.643 33.2772L11.4879 33.2286L11.3332 33.1785L11.1789 33.1268L11.0251 33.0735L10.8717 33.0187L10.7189 32.9624L10.5666 32.9045L10.4147 32.8451L10.2635 32.7842L10.1128 32.7217L9.96261 32.6577L9.81305 32.5922L9.66408 32.5253L9.51571 32.4567L9.368 32.3867L9.22097 32.3152L9.07461 32.2422L8.92884 32.1677L8.78383 32.0918L8.63958 32.0144L8.49592 31.9356L8.35309 31.8553L8.21103 31.7735L8.06973 31.6903L7.92918 31.6056L7.78947 31.5196L7.65053 31.4321L7.51242 31.3432L7.37524 31.2529L7.23882 31.1613L7.10333 31.0681L6.96876 30.9737L6.83503 30.8779L6.70224 30.7806L6.57038 30.6821L6.43947 30.5822L6.30952 30.4809L6.18055 30.3784L6.05256 30.2745L5.92557 30.1693L5.7996 30.0628L5.67466 29.955L5.55076 29.846L5.42792 29.7356L5.30616 29.6239L5.18547 29.5112L5.06588 29.397L4.9474 29.2817L4.83005 29.1651L4.71382 29.0474L4.59875 28.9285L4.48483 28.8083L4.37209 28.687L4.26054 28.5645L4.15019 28.4408L4.04104 28.3161L3.93312 28.1902L3.82643 28.0631L3.72099 27.935L3.61682 27.8057L3.5139 27.6754L3.41228 27.544L3.31194 27.4116L3.21291 27.278L3.11519 27.1435L3.0188 27.0079L2.92375 26.8713L2.83005 26.7338L2.7377 26.5952L2.64673 26.4557L2.55714 26.3152L2.46893 26.1738L2.38212 26.0314L2.29673 25.8882L2.21276 25.7439L2.13022 25.5989L2.04912 25.453L1.96947 25.3062L1.89128 25.1585L1.81454 25.01L1.7393 24.8607L1.66553 24.7106L1.59327 24.5597L1.52251 24.408L1.45325 24.2556L1.38552 24.1023L1.31932 23.9485L1.25465 23.7938L1.19154 23.6385L1.12996 23.4824L1.06995 23.3257L1.01152 23.1684L0.954653 23.0103L0.899368 22.8517L0.845667 22.6925L0.793566 22.5327L0.743074 22.3723L0.694181 22.2113L0.646914 22.0498L0.601263 21.8877L0.557238 21.7251L0.514846 21.562L0.474097 21.3985L0.43499 21.2344L0.397541 21.07L0.361743 20.905L0.327604 20.7397L0.295133 20.5739L0.264328 20.4078L0.2352 20.2413L0.207756 20.0745L0.181987 19.9073L0.157912 19.7397L0.135528 19.5718L0.114846 19.4037L0.0958569 19.2353L0.0785685 19.0667L0.0629895 18.8979L0.0491201 18.7287L0.03696 18.5594L0.026518 18.3899L0.0177938 18.2203L0.0107874 18.0504L0.00549899 17.8805L0.00193686 17.7104L0.000109422 17.5403L0 17.37ZM16.3184 4.90194L16.28 1.62927L16.2435 1.63282L16.0761 1.65081L15.9091 1.67043L15.7422 1.69171L15.576 1.71458L15.4099 1.73911L15.244 1.76528L15.0787 1.79306L14.9134 1.82249L14.7491 1.85346L14.5844 1.88616L14.421 1.92033L14.2573 1.95622L14.0944 1.99364L13.9317 2.03272L13.7698 2.0733L13.6083 2.11551L13.4472 2.1593L13.2866 2.20466L13.1267 2.25155L12.9672 2.30005L12.8084 2.35005L12.6501 2.40165L12.4926 2.45467L12.3354 2.50937L12.179 2.56553L12.0234 2.62318L11.8682 2.6824L11.7139 2.74306L11.5603 2.80519L11.4072 2.86891L11.2549 2.93408L11.1033 3.00074L10.9526 3.0688L10.8026 3.13834L10.6535 3.20928L10.5048 3.28178L10.3573 3.35561L10.2105 3.43088L10.0646 3.50757L9.91949 3.58567L9.77541 3.66512L9.63192 3.74603L9.48935 3.82834L9.34804 3.91183L9.20716 3.99695L9.06762 4.0832L8.92901 4.17079L8.79107 4.25982L8.65423 4.35015L8.5184 4.44179L8.38383 4.53452L8.24977 4.62889L8.11705 4.72427L7.98535 4.82096L7.85457 4.91898L7.72497 5.01817L7.59655 5.11855L7.46888 5.22033L7.34265 5.32309L7.21735 5.4272L7.09322 5.53244L6.97019 5.6389L6.84842 5.74638L6.72756 5.85523L6.60808 5.96504L6.48963 6.07611L6.37254 6.18813L6.25652 6.30136L6.14179 6.4156L6.02824 6.53098L5.91578 6.64755L5.8048 6.76492L5.69507 6.8833L5.58631 7.00307L5.47906 7.1236L5.37312 7.24498L5.26827 7.36763L5.16494 7.49105L5.06276 7.61558L4.96195 7.74095L4.86247 7.86735L4.76428 7.99459L4.66754 8.12269L4.57206 8.25172L4.47789 8.38177L4.38525 8.51241L4.29384 8.64416L4.20388 8.77659L4.11532 8.90987L4.02808 9.044L3.94232 9.1789L3.85797 9.31447L3.77503 9.4509L3.69357 9.588L3.61346 9.72596L3.53478 9.86468L3.45765 10.0039L3.3819 10.1439L3.3076 10.2847L3.23481 10.426L3.16345 10.568L3.09363 10.7106L3.02525 10.8538L2.95839 10.9976L2.89299 11.1421L2.82913 11.2871L2.76672 11.4327L2.70584 11.5788L2.64651 11.7253L2.58867 11.8725L2.53234 12.0201L2.47756 12.1682L2.42429 12.3168L2.37261 12.4657L2.32241 12.6152L2.27377 12.765L2.22669 12.9153L2.18116 13.0659L2.13715 13.217L2.09474 13.3683L2.05387 13.52L2.01455 13.672L1.9768 13.8244L1.94062 13.977L1.90601 14.1299L1.87297 14.2831L1.8415 14.4365L1.8116 14.5901L1.78328 14.7439L1.75653 14.898L1.73136 15.0522L1.70777 15.2066L1.68576 15.3611L1.66533 15.5158L1.64648 15.6706L1.6292 15.8255L1.61352 15.9805L1.59941 16.1356L1.58688 16.2906L1.57593 16.4458L1.56657 16.601L1.55878 16.7561L1.55257 16.9113L1.54794 17.0665L1.54489 17.2216L1.54341 17.3766L1.54351 17.5317L1.54518 17.6865L1.54842 17.8414L1.55323 17.9961L1.5596 18.1506L1.56755 18.3051L1.57705 18.4593L1.58812 18.6134L1.60074 18.7672L1.61492 18.9209L1.63064 19.0744L1.64792 19.2276L1.66675 19.3806L1.68711 19.5333L1.70901 19.6857L1.73245 19.8378L1.75741 19.9895L1.78392 20.141L1.81193 20.2921L1.84147 20.4428L1.87251 20.5933L1.90507 20.7432L1.93913 20.8928L1.97469 21.042L2.01175 21.1908L2.0503 21.3391L2.09032 21.4868L2.13183 21.6342L2.17481 21.7811L2.21926 21.9275L2.26517 22.0733L2.31252 22.2186L2.36133 22.3633L2.41159 22.5075L2.46328 22.6511L2.51638 22.7941L2.57094 22.9366L2.62688 23.0783L2.68424 23.2195L2.74301 23.36L2.80316 23.4999L2.86471 23.6391L2.92763 23.7776L2.99192 23.9154L3.05757 24.0525L3.12459 24.1889L3.19294 24.3245L3.26264 24.4594L3.33367 24.5936L3.40602 24.7269L3.47968 24.8594L3.55464 24.9912L3.63091 25.1222L3.70846 25.2522L3.78726 25.3815L3.86738 25.5099L3.94872 25.6374L4.03133 25.7642L4.11517 25.89L4.20024 26.0148L4.28652 26.1389L4.37404 26.2619L4.46273 26.3841L4.55264 26.5053L4.64369 26.6255L4.73596 26.7447L4.82933 26.863L4.92388 26.9803L5.0196 27.0966L5.11638 27.2119L5.21432 27.3261L5.31334 27.4394L5.41349 27.5516L5.5147 27.6627L5.61695 27.7727L5.72029 27.8817L5.82467 27.9897L5.93012 28.0965L6.03656 28.2022L6.14405 28.3068L6.2525 28.4102L6.36194 28.5127L6.4724 28.6139L6.58381 28.7139L6.6961 28.8128L6.80943 28.9105L6.92371 29.0071L7.03874 29.1025L7.15486 29.1967L7.27175 29.2896L7.38956 29.3814L7.50821 29.4721L7.62779 29.5614L7.74813 29.6494L7.86931 29.7363L7.99124 29.8219L8.11411 29.9063L8.23764 29.9894L8.36211 30.0712L8.48716 30.1518L8.61305 30.231L8.73971 30.309L8.86695 30.3857L8.99503 30.4611L9.12371 30.5351L9.25314 30.6079L9.38316 30.6793L9.51394 30.7494L9.64522 30.8182L9.77718 30.8857L9.90981 30.9517L10.043 31.0165L10.1768 31.0799L10.3111 31.142L10.4459 31.2026L10.5814 31.2619L10.7173 31.3198L10.8538 31.3764L10.9907 31.4316L11.1282 31.4853L11.2661 31.5377L11.4044 31.5887L11.5432 31.6383L11.6824 31.6865L11.8221 31.7333L11.9621 31.7787L12.1024 31.8226L12.2433 31.8652L12.3843 31.9064L12.5258 31.9461L12.6676 31.9844L12.8097 32.0213L12.9521 32.0567L13.0947 32.0907L13.2376 32.1234L13.3808 32.1545L13.5241 32.1842L13.6678 32.2125L13.8116 32.2394L13.9556 32.2648L14.0998 32.2888L14.2441 32.3113L14.3886 32.3324L14.5333 32.352L14.678 32.3703L14.8228 32.387L14.9677 32.4023L15.1128 32.4163L15.2579 32.4287L15.4029 32.4397L15.548 32.4493L15.6932 32.4574L15.8383 32.4641L15.9834 32.4693L16.1285 32.4731L16.2736 32.4754L16.4185 32.4764L16.5635 32.4759L16.7083 32.4739L16.853 32.4706L16.9976 32.4658L17.1421 32.4595L17.2864 32.4519L17.4305 32.4428L17.5745 32.4323L17.7183 32.4204L17.8619 32.4071L18.0052 32.3923L18.1484 32.3762L18.2912 32.3587L18.4339 32.3397L18.5762 32.3193L18.7182 32.2975L18.86 32.2744L19.0014 32.2499L19.1426 32.2239L19.2833 32.1966L19.4237 32.168L19.5637 32.1379L19.7033 32.1065L19.8425 32.0737L19.9814 32.0396L20.1197 32.0041L20.2577 31.9672L20.3951 31.9291L20.5322 31.8895L20.6687 31.8487L20.8048 31.8065L20.9403 31.7631L21.0754 31.7182L21.2099 31.6721L21.3437 31.6247L21.4771 31.5759L21.6099 31.5259L21.7421 31.4746L21.8738 31.422L22.0047 31.3682L22.1351 31.3131L22.2648 31.2567L22.3939 31.1991L22.5223 31.1403L22.6501 31.0802L22.7772 31.0188L22.9035 30.9563L23.0292 30.8925L23.1541 30.8275L23.2783 30.7614L23.4019 30.694L23.5245 30.6255L23.6464 30.5558L23.7675 30.485L23.888 30.4129L24.0074 30.3398L24.1263 30.2654L24.2441 30.19L24.3612 30.1135L24.4775 30.0358L24.5929 29.9569L24.7073 29.8772L24.8209 29.7962L24.9336 29.7141L25.0455 29.6311L25.1565 29.5469L25.2664 29.4618L25.3756 29.3754L25.4836 29.2882L25.5907 29.2L25.6971 29.1106L25.8024 29.0203L25.9065 28.9291L26.0099 28.8368L26.1121 28.7436L26.2134 28.6494L26.3137 28.5543L26.4128 28.4583L26.5111 28.3613L26.6083 28.2634L26.7043 28.1646L26.7994 28.0649L26.8933 27.9644L26.9861 27.8631L27.0781 27.7606L27.1687 27.6576L27.2584 27.5535L27.3468 27.4488L27.4342 27.3431L27.5204 27.2368L27.6055 27.1296L27.6895 27.0216L27.7723 26.913L27.8541 26.8034L27.9345 26.6932L28.0139 26.5822L28.0922 26.4704L28.169 26.3582L28.2449 26.2451L28.3194 26.1315L28.3928 26.017L28.4652 25.9018L28.5361 25.7862L28.6058 25.6699L28.6744 25.5527L28.7416 25.4353L28.8077 25.3171L28.8727 25.1983L28.9362 25.0791L28.9986 24.9591L29.0597 24.8385L29.1194 24.7179L29.178 24.5963L29.2354 24.4742L29.2914 24.3518L29.3461 24.2289L29.3996 24.1055L29.4517 23.9817L29.5027 23.8573L29.5523 23.7325L29.6005 23.6076L29.6475 23.4818L29.6931 23.356L29.7376 23.2297L29.7807 23.103L29.8225 22.9759L29.8628 22.8489L29.9021 22.7208L29.9398 22.593L29.9763 22.4647L30.0115 22.3363L30.0453 22.2074L30.0777 22.0784L30.109 21.949L30.1388 21.8194L30.1673 21.6897L30.1945 21.5597L30.2203 21.4297L30.2448 21.2991L30.268 21.1689L30.2898 21.0382L30.3102 20.9074L30.3293 20.7766L30.3472 20.6455L30.3636 20.5146L30.3788 20.3831L30.3925 20.2521L30.405 20.1207L30.416 19.9895L30.4258 19.858L30.4342 19.7269L30.4413 19.5954L30.447 19.4638L30.4514 19.3326L30.4545 19.2016L30.4562 19.0701L30.4566 18.9389L30.4557 18.8078L30.4534 18.6768L30.4498 18.5458L30.4448 18.4153L30.4386 18.2844L30.431 18.154L30.4221 18.0236L30.4119 17.8936L30.4003 17.7634L30.3875 17.6338L30.3734 17.5041L30.3579 17.3748L30.3411 17.2456L30.3231 17.1168L30.3037 16.9879L30.283 16.8597L30.2611 16.7318L30.2379 16.6039L30.2133 16.4764L30.1875 16.3494L30.1604 16.2223L30.1322 16.0962L30.1025 15.9699L30.0717 15.8444L30.0395 15.7188L30.0061 15.5941L29.9715 15.4696L29.9357 15.3453L29.8986 15.2218L29.8603 15.0987L29.8206 14.9757L29.78 14.8537L29.7379 14.7317L29.6947 14.6105L29.6503 14.4895L29.6047 14.3694L29.5578 14.2495L29.5098 14.1302L29.4607 14.0117L29.4104 13.8938L29.3587 13.776L29.3063 13.6592L29.2523 13.5426L29.1974 13.4271L29.1413 13.312L29.084 13.1974L29.0257 13.0836L28.9661 12.9704L28.9054 12.8577L28.844 12.7461L28.7811 12.6347L28.7172 12.5243L28.6521 12.4144L28.5863 12.3056L28.519 12.1971L28.4509 12.0895L28.3816 11.9825L28.3114 11.8765L28.2403 11.7713L28.1678 11.6666L28.0945 11.5628L28.0202 11.4598L27.9448 11.3577L27.8685 11.2562L27.7912 11.1557L27.713 11.056L27.6338 10.9571L27.5536 10.8591L27.4724 10.7619L27.3903 10.6655L27.3074 10.5701L27.2236 10.4756L27.1388 10.3819L27.0529 10.289L26.9666 10.1974L26.8788 10.1062L26.7907 10.0164L26.7015 9.92724L26.6115 9.83917L26.5204 9.7518L26.429 9.66578L26.3363 9.58044L26.2429 9.49612L26.1491 9.4129L26.0542 9.33062L25.9583 9.24911L25.8619 9.16878L25.7648 9.08947L25.6669 9.01119L25.5682 8.93384L25.469 8.85777L25.3687 8.78229L25.268 8.70825L25.1666 8.63515L25.0643 8.56298L24.9617 8.49201L24.8579 8.42189L24.7542 8.35321L24.6493 8.28529L24.544 8.21856L24.4379 8.15286L24.3314 8.08826L24.2243 8.02485L24.1167 7.96263L24.0082 7.90118L23.8996 7.84117L23.7901 7.78209L23.6803 7.72421L23.5699 7.66751L23.4589 7.61184L23.3475 7.55726L23.2357 7.50397L23.1233 7.4517L23.0106 7.4007L22.8973 7.35071L22.78 7.3004L22.6697 7.25441L22.5549 7.20783L22.4403 7.16269L22.3248 7.11841L22.2093 7.07557L22.0932 7.03375L21.9769 6.9932L21.8601 6.95368L21.7432 6.91551L21.6259 6.87846L21.5082 6.84259L21.3905 6.80799L21.2723 6.77447L21.1536 6.7421L21.0351 6.71105L20.9164 6.68118L20.7969 6.65241L20.6778 6.62496L20.5581 6.59861L20.4385 6.57353L20.3184 6.5496L20.1985 6.52692L20.0782 6.50542L19.9581 6.48516L19.8373 6.46603L19.7169 6.44818L19.5962 6.4315L19.4754 6.41602L19.3545 6.40176L19.2337 6.38872L19.1128 6.37687L18.9917 6.36623L18.8707 6.35678L18.7495 6.34854L18.6286 6.34152L18.5077 6.3357L18.3864 6.33106L18.2657 6.32765L18.1448 6.32542L18.0239 6.3244L17.9029 6.32457L17.8787 6.32485L17.9168 9.57372L17.9854 9.57338L18.0738 9.57389L18.1621 9.57525L18.2505 9.57755L18.339 9.58069L18.4275 9.58477L18.516 9.5897L18.6046 9.59548L18.6932 9.60219L18.7818 9.60976L18.8704 9.61826L18.9589 9.62761L19.0475 9.6379L19.136 9.64903L19.2244 9.66102L19.3128 9.67402L19.4012 9.68779L19.4894 9.70249L19.5777 9.71814L19.6658 9.73463L19.7538 9.75205L19.8417 9.77033L19.9295 9.78945L20.0172 9.80951L20.1047 9.83051L20.1921 9.85235L20.2792 9.87504L20.3663 9.89868L20.4532 9.92316L20.54 9.94857L20.6265 9.97484L20.7128 10.002L20.7989 10.03L20.8848 10.0589L20.9705 10.0887L21.0559 10.1194L21.1411 10.151L21.226 10.1833L21.3107 10.2167L21.3951 10.2508L21.4792 10.2859L21.563 10.3218L21.6466 10.3585L21.7298 10.3962L21.8126 10.4346L21.8952 10.474L21.9774 10.5142L22.0593 10.5552L22.1408 10.5971L22.222 10.6399L22.3027 10.6834L22.3832 10.7279L22.4632 10.7731L22.5427 10.8191L22.622 10.8661L22.7008 10.9138L22.7791 10.9624L22.857 11.0118L22.9345 11.062L23.0115 11.113L23.0881 11.1648L23.1642 11.2174L23.2398 11.2708L23.3149 11.325L23.3896 11.38L23.4637 11.4358L23.5373 11.4923L23.6104 11.5497L23.6829 11.6079L23.7549 11.6667L23.8264 11.7263L23.8973 11.7868L23.9677 11.8479L24.0376 11.9098L24.1068 11.9724L24.1754 12.0358L24.2434 12.0999L24.3108 12.1648L24.3776 12.2303L24.4438 12.2966L24.5094 12.3636L24.5743 12.4313L24.6387 12.4997L24.7022 12.5688L24.7652 12.6386L24.8275 12.709L24.8892 12.7801L24.9501 12.8519L25.0104 12.9243L25.0701 12.9974L25.1289 13.0712L25.1871 13.1456L25.2445 13.2206L25.3013 13.2963L25.3573 13.3726L25.4125 13.4495L25.4671 13.527L25.5208 13.6051L25.5739 13.6838L25.6261 13.7631L25.6776 13.8429L25.7283 13.9234L25.7782 14.0044L25.8274 14.0859L25.8757 14.1681L25.9232 14.2508L25.9699 14.3339L26.0158 14.4176L26.0609 14.5019L26.1052 14.5866L26.1486 14.6719L26.1912 14.7576L26.2329 14.8439L26.2739 14.9306L26.3139 15.0177L26.353 15.1054L26.3913 15.1935L26.4288 15.2821L26.4653 15.3711L26.5011 15.4605L26.5358 15.5503L26.5697 15.6405L26.6027 15.7312L26.6348 15.8222L26.666 15.9137L26.6963 16.0055L26.7256 16.0977L26.7541 16.1902L26.7816 16.2831L26.8083 16.3764L26.8339 16.4699L26.8586 16.5639L26.8824 16.658L26.9053 16.7526L26.9272 16.8473L26.9481 16.9425L26.9681 17.0378L26.9871 17.1335L27.0051 17.2293L27.0222 17.3255L27.0384 17.4219L27.0536 17.5185L27.0677 17.6154L27.0809 17.7124L27.0931 17.8096L27.1044 17.9071L27.1146 18.0048L27.1239 18.1025L27.1322 18.2005L27.1395 18.2986L27.1458 18.3969L27.151 18.4952L27.1553 18.5938L27.1586 18.6924L27.1608 18.7911L27.1621 18.89L27.1624 18.9889L27.1616 19.0879L27.1598 19.1869L27.1571 19.286L27.1533 19.3852L27.1485 19.4843L27.1427 19.5835L27.1358 19.6828L27.128 19.782L27.1191 19.8812L27.1092 19.9804L27.0983 20.0795L27.0864 20.1787L27.0734 20.2777L27.0595 20.3767L27.0445 20.4757L27.0285 20.5745L27.0115 20.6733L26.9933 20.772L26.9743 20.8706L26.9542 20.969L26.9331 21.0673L26.911 21.1655L26.8878 21.2635L26.8637 21.3614L26.8385 21.4591L26.8123 21.5566L26.7851 21.6539L26.7569 21.751L26.7277 21.8479L26.6974 21.9446L26.6661 22.0411L26.6339 22.1372L26.6006 22.2332L26.5664 22.3289L26.5311 22.4243L26.4948 22.5194L26.4576 22.6143L26.4194 22.7088L26.3801 22.803L26.3399 22.8969L26.2987 22.9905L26.2565 23.0837L26.2133 23.1765L26.1692 23.269L26.124 23.3611L26.0779 23.4529L26.0308 23.5442L25.9828 23.6351L25.9338 23.7256L25.8839 23.8157L25.833 23.9054L25.7811 23.9946L25.7283 24.0834L25.6746 24.1716L25.62 24.2595L25.5643 24.3468L25.5078 24.4337L25.4503 24.52L25.3919 24.6058L25.3326 24.6911L25.2724 24.7759L25.2113 24.8601L25.1493 24.9438L25.0864 25.027L25.0226 25.1095L24.9579 25.1914L24.8923 25.2729L24.8259 25.3536L24.7586 25.4339L24.6904 25.5134L24.6213 25.5924L24.5514 25.6707L24.4807 25.7484L24.4091 25.8254L24.3368 25.9018L24.2635 25.9774L24.1895 26.0525L24.1145 26.1268L24.0389 26.2005L23.9624 26.2734L23.8851 26.3456L23.8071 26.4171L23.7282 26.4879L23.6486 26.5579L23.5682 26.6273L23.4871 26.6958L23.4051 26.7636L23.3225 26.8306L23.2391 26.8968L23.1549 26.9623L23.0701 27.0269L22.9846 27.0908L22.8983 27.1538L22.8114 27.2162L22.7237 27.2775L22.6354 27.3381L22.5463 27.3979L22.4566 27.4568L22.3662 27.5148L22.2753 27.572L22.1836 27.6283L22.0914 27.6838L21.9984 27.7384L21.9049 27.792L21.8108 27.8448L21.716 27.8967L21.6207 27.9477L21.5248 27.9978L21.4283 28.0469L21.3313 28.0951L21.2337 28.1425L21.1355 28.1888L21.0368 28.2342L20.9376 28.2787L20.8379 28.3222L20.7376 28.3647L20.6369 28.4062L20.5357 28.4469L20.4339 28.4865L20.3318 28.5251L20.2291 28.5628L20.1261 28.5994L20.0225 28.6351L19.9186 28.6697L19.8141 28.7033L19.7094 28.736L19.6042 28.7676L19.4986 28.7981L19.3927 28.8277L19.2863 28.8561L19.1796 28.8836L19.0726 28.91L18.9652 28.9354L18.8574 28.9598L18.7495 28.983L18.6411 29.0052L18.5325 29.0264L18.4236 29.0465L18.3144 29.0656L18.2049 29.0835L18.0952 29.1003L17.9853 29.1162L17.875 29.1309L17.7646 29.1445L17.6541 29.157L17.5432 29.1685L17.4323 29.1789L17.3211 29.1882L17.2098 29.1963L17.0983 29.2034L16.9866 29.2093L16.8749 29.2142L16.7629 29.2179L16.6509 29.2205L16.5389 29.2221L16.4266 29.2225L16.3144 29.2218L16.2021 29.2199L16.0897 29.2171L15.9773 29.213L15.8648 29.2078L15.7523 29.2015L15.6399 29.1941L15.5274 29.1856L15.415 29.1759L15.3026 29.1651L15.1901 29.1532L15.0778 29.1402L14.9656 29.1261L14.8533 29.1108L14.7412 29.0944L14.6292 29.0769L14.5173 29.0583L14.4055 29.0385L14.2938 29.0176L14.1823 28.9956L14.071 28.9724L13.9597 28.9482L13.8488 28.9229L13.7379 28.8963L13.6273 28.8687L13.5169 28.84L13.4067 28.8102L13.2967 28.7792L13.187 28.7472L13.0776 28.714L12.9683 28.6798L12.8595 28.6443L12.7509 28.6079L12.6425 28.5703L12.5346 28.5316L12.4269 28.4918L12.3196 28.4509L12.2126 28.409L12.106 28.3659L11.9997 28.3217L11.8939 28.2765L11.7885 28.2303L11.6835 28.1829L11.5788 28.1344L11.4746 28.0849L11.3709 28.0344L11.2675 27.9827L11.1646 27.93L11.0623 27.8763L10.9604 27.8214L10.859 27.7656L10.7581 27.7087L10.6578 27.6508L10.5579 27.5918L10.4586 27.5318L10.3598 27.4708L10.2616 27.4088L10.164 27.3458L10.067 27.2818L9.97061 27.2167L9.87478 27.1506L9.77954 27.0836L9.68497 27.0156L9.59099 26.9466L9.49768 26.8767L9.40497 26.8057L9.31301 26.7338L9.22173 26.6609L9.13112 26.5871L9.04118 26.5124L8.95192 26.4366L8.86341 26.36L8.77566 26.2824L8.68859 26.204L8.60227 26.1246L8.5168 26.0443L8.432 25.9632L8.34796 25.8811L8.26476 25.7981L8.1824 25.7143L8.1008 25.6295L8.01996 25.544L7.93996 25.4576L7.86088 25.3704L7.78257 25.2822L7.7051 25.1933L7.62855 25.1036L7.55276 25.013L7.47798 24.9217L7.40396 24.8294L7.33095 24.7365L7.25878 24.6428L7.18754 24.5483L7.11722 24.453L7.04775 24.357L6.97928 24.2602L6.91183 24.1627L6.84522 24.0644L6.77962 23.9655L6.715 23.8659L6.65134 23.7655L6.58867 23.6644L6.52699 23.5627L6.46631 23.4603L6.40664 23.3572L6.34798 23.2535L6.29033 23.1492L6.23373 23.0441L6.17816 22.9385L6.12362 22.8323L6.07014 22.7254L6.01772 22.618L5.96636 22.51L5.91607 22.4014L5.86686 22.2922L5.81872 22.1825L5.77168 22.0723L5.72573 21.9615L5.68088 21.8502L5.63715 21.7384L5.59453 21.626L5.55302 21.5132L5.51263 21.4L5.47338 21.2862L5.43527 21.1721L5.39829 21.0574L5.36246 20.9423L5.32778 20.8269L5.29426 20.7109L5.26189 20.5947L5.23069 20.4779L5.20067 20.3608L5.17182 20.2434L5.14414 20.1256L5.11766 20.0075L5.09235 19.889L5.06824 19.7702L5.04533 19.6512L5.02361 19.5317L5.0031 19.412L4.9838 19.2921L4.9657 19.1719L4.94882 19.0515L4.93315 18.9308L4.91871 18.8098L4.90549 18.6887L4.89349 18.5674L4.88272 18.4459L4.87319 18.3241L4.86488 18.2023L4.85781 18.0803L4.85198 17.9581L4.84739 17.8359L4.84405 17.7135L4.84195 17.591L4.84109 17.4684L4.84148 17.3457L4.84312 17.223L4.84601 17.1002L4.85015 16.9774L4.85555 16.8545L4.8622 16.7317L4.8701 16.6087L4.87926 16.4859L4.88967 16.363L4.90134 16.2403L4.91427 16.1174L4.92845 15.9948L4.9439 15.8721L4.9606 15.7496L4.97855 15.6271L4.99777 15.5048L5.01823 15.3825L5.03996 15.2605L5.06294 15.1385L5.08718 15.0167L5.11266 14.8951L5.1394 14.7737L5.16739 14.6525L5.19663 14.5314L5.22712 14.4106L5.25885 14.2901L5.29183 14.1698L5.32605 14.0497L5.36152 13.93L5.39822 13.8105L5.43617 13.6912L5.47534 13.5724L5.51575 13.4538L5.55739 13.3356L5.60025 13.2177L5.64434 13.1001L5.68964 12.983L5.73617 12.8662L5.78391 12.7498L5.83286 12.6339L5.88301 12.5183L5.93438 12.4032L5.98694 12.2885L6.0407 12.1743L6.09565 12.0606L6.15179 11.9473L6.20911 11.8346L6.26761 11.7224L6.32728 11.6106L6.38813 11.4994L6.45015 11.3887L6.51331 11.2786L6.57764 11.1691L6.64312 11.0601L6.70974 10.9517L6.77752 10.844L6.8464 10.7368L6.91646 10.6303L6.98754 10.5244L7.05987 10.4191L7.13322 10.3145L7.20766 10.2105L7.28328 10.1074L7.35992 10.0048L7.43773 9.90293L7.51655 9.80178L7.59646 9.70139L7.67739 9.60177L7.75941 9.50283L7.84253 9.40465L7.92665 9.30725L8.01179 9.21068L8.09802 9.11489L8.18518 9.01986L8.27343 8.92568L8.3627 8.83226L8.45288 8.73979L8.54408 8.64807L8.63629 8.55721L8.72952 8.46728L8.82366 8.37811L8.91874 8.28997L9.01482 8.20259L9.11183 8.11623L9.20968 8.03072L9.30855 7.94614L9.40834 7.8625L9.50897 7.7798L9.61053 7.69803L9.71301 7.61728L9.81634 7.53746L9.9205 7.45867L10.0256 7.38081L10.1315 7.30397L10.2381 7.22815L10.3458 7.15335L10.4541 7.07957L10.5633 7.00689L10.6733 6.93515L10.7841 6.86452L10.8957 6.79493L11.008 6.72642L11.1211 6.65898L11.2349 6.59263L11.3495 6.52736L11.4648 6.4632L11.5807 6.40015L11.6974 6.33822L11.8148 6.27741L11.9329 6.21773L12.0516 6.15919L12.171 6.1018L12.2911 6.04557L12.4118 5.99049L12.5331 5.93657L12.6551 5.88384L12.7776 5.83228L12.9007 5.78191L13.0243 5.73274L13.1486 5.68477L13.2734 5.638L13.3988 5.59245L13.5247 5.54811L13.6511 5.505L13.778 5.46312L13.9053 5.42248L14.0333 5.38308L14.1616 5.34492L14.2904 5.30802L14.4196 5.27237L14.5493 5.23799L14.6794 5.20487L14.8099 5.17303L14.9408 5.14247L15.0721 5.11318L15.2037 5.08518L15.3357 5.05848L15.468 5.03307L15.6007 5.00896L15.7336 4.98614L15.8669 4.96464L16.0005 4.94444L16.1343 4.92556L16.2684 4.90799L16.3184 4.90194ZM16.375 9.72069L16.3364 6.43611L16.2265 6.45161L16.1084 6.46949L15.9901 6.48855L15.8727 6.50871L15.755 6.53009L15.638 6.55257L15.5212 6.57621L15.4048 6.60096L15.2887 6.62687L15.1728 6.65394L15.0573 6.68211L14.9422 6.7114L14.8273 6.74187L14.7169 6.77229L14.5992 6.80604L14.4856 6.83978L14.3725 6.87463L14.26 6.9105L14.1478 6.94756L14.036 6.98573L13.9246 7.02491L13.8139 7.06512L13.7036 7.10651L13.5938 7.14884L13.4844 7.19236L13.3758 7.23682L13.2673 7.28246L13.1596 7.32904L13.0524 7.37664L12.9459 7.42526L12.8397 7.47499L12.7341 7.52573L12.6295 7.57733L12.525 7.63011L12.4216 7.68374L12.3183 7.73857L12.2161 7.79408L12.114 7.85094L12.013 7.9084L11.9126 7.96697L11.8127 8.02655L11.7136 8.08699L11.615 8.14853L11.5174 8.21075L11.4202 8.27407L11.324 8.33825L11.2284 8.40327L11.1335 8.46931L11.0392 8.5363L10.9459 8.60387L10.8532 8.67264L10.7613 8.74217L10.6701 8.81254L10.5799 8.88369L10.4902 8.95586L10.4015 9.0287L10.3136 9.1024L10.2264 9.17711L10.1402 9.25234L10.0547 9.32858L9.96994 9.40559L9.88615 9.48328L9.80328 9.56174L9.72101 9.64113L9.63992 9.72102L9.55958 9.80178L9.48 9.88337L9.40143 9.96557L9.32371 10.0486L9.2469 10.1323L9.17103 10.2166L9.096 10.3017L9.02181 10.3875L8.94888 10.4738L8.87663 10.5609L8.80531 10.6487L8.73499 10.737L8.66568 10.8259L8.59714 10.9157L8.52968 11.0059L8.46316 11.0968L8.39764 11.1882L8.33305 11.2803L8.26956 11.3727L8.20699 11.4659L8.14535 11.5597L8.08472 11.6539L8.02518 11.7486L7.96665 11.8439L7.90905 11.9399L7.85246 12.0361L7.79697 12.1329L7.7424 12.2302L7.68901 12.3278L7.63655 12.4261L7.58501 12.5248L7.53474 12.6238L7.48539 12.7234L7.43714 12.8234L7.3899 12.9236L7.34375 13.0244L7.29861 13.1254L7.25457 13.2269L7.21154 13.3288L7.16968 13.4309L7.12884 13.5334L7.08901 13.6364L7.05027 13.7396L7.01272 13.843L6.97608 13.9469L6.94072 14.0508L6.90627 14.1552L6.87301 14.2599L6.84076 14.3647L6.80968 14.4698L6.77962 14.5751L6.75074 14.6806L6.72287 14.7864L6.69613 14.8923L6.67048 14.9985L6.64595 15.1048L6.62249 15.2113L6.60013 15.3179L6.57891 15.4247L6.55875 15.5315L6.53971 15.6386L6.52178 15.7457L6.50493 15.853L6.4892 15.9602L6.47456 16.0676L6.46104 16.1751L6.44861 16.2826L6.43728 16.3901L6.42706 16.4977L6.41794 16.6053L6.40992 16.7129L6.403 16.8206L6.39717 16.9282L6.39245 17.0357L6.38883 17.1432L6.38629 17.2507L6.38486 17.3581L6.38451 17.4655L6.38526 17.5728L6.38711 17.68L6.39004 17.7871L6.39405 17.894L6.39915 18.001L6.40533 18.1077L6.41259 18.2142L6.42093 18.3207L6.43035 18.427L6.44084 18.5331L6.4524 18.639L6.46503 18.7447L6.47873 18.8503L6.49348 18.9555L6.50931 19.0607L6.52617 19.1654L6.5441 19.27L6.56308 19.3744L6.5831 19.4783L6.60417 19.5822L6.62626 19.6857L6.64941 19.7889L6.67357 19.8917L6.69878 19.9943L6.725 20.0966L6.75225 20.1985L6.78046 20.3L6.80977 20.4012L6.84 20.502L6.87133 20.6025L6.90358 20.7026L6.93684 20.8022L6.97112 20.9014L7.00632 21.0003L7.04253 21.0987L7.07975 21.1967L7.1179 21.2942L7.15697 21.3913L7.19705 21.4879L7.23806 21.5841L7.28008 21.6797L7.32295 21.7749L7.36682 21.8695L7.41162 21.9637L7.45726 22.0573L7.50392 22.1504L7.55141 22.2431L7.59983 22.3351L7.64918 22.4266L7.69937 22.5175L7.75048 22.6079L7.80244 22.6976L7.85533 22.7868L7.90905 22.8755L7.96362 22.9634L8.01903 23.0508L8.07537 23.1377L8.13238 23.2237L8.1904 23.3093L8.24909 23.3941L8.30872 23.4784L8.36909 23.5619L8.43032 23.6448L8.4923 23.727L8.55512 23.8086L8.61861 23.8894L8.68295 23.9696L8.74804 24.0491L8.8139 24.1278L8.88051 24.2058L8.94787 24.2832L9.01592 24.3597L9.08472 24.4356L9.15419 24.5107L9.22442 24.5851L9.29533 24.6587L9.36699 24.7315L9.43924 24.8036L9.51225 24.8749L9.58594 24.9455L9.66013 25.0152L9.73516 25.0842L9.81069 25.1523L9.88691 25.2196L9.96379 25.2861L10.0413 25.3518L10.1193 25.4168L10.198 25.4808L10.2772 25.544L10.3571 25.6064L10.4375 25.668L10.5185 25.7287L10.5999 25.7886L10.6819 25.8476L10.7645 25.9057L10.8477 25.963L10.9314 26.0194L11.0155 26.0749L11.1001 26.1296L11.1853 26.1834L11.2708 26.2363L11.3569 26.2883L11.4435 26.3394L11.5304 26.3895L11.6179 26.4388L11.7056 26.4872L11.7939 26.5347L11.8826 26.5813L11.9716 26.6268L12.0611 26.6716L12.1511 26.7154L12.2413 26.7583L12.3318 26.8002L12.4228 26.8413L12.514 26.8813L12.6056 26.9204L12.6976 26.9587L12.7899 26.9959L12.8824 27.0322L12.9752 27.0676L13.0684 27.102L13.1618 27.1355L13.2554 27.168L13.3494 27.1996L13.4435 27.2301L13.5379 27.2598L13.6326 27.2884L13.7274 27.3161L13.8224 27.3429L13.9176 27.3686L14.0131 27.3935L14.1086 27.4173L14.2044 27.4402L14.3003 27.4621L14.3964 27.4831L14.4925 27.5031L14.5888 27.5221L14.6853 27.5401L14.7817 27.5572L14.8784 27.5733L14.9751 27.5884L15.0718 27.6026L15.1687 27.6157L15.2655 27.628L15.3624 27.6392L15.4594 27.6495L15.5564 27.6587L15.6534 27.6671L15.7504 27.6744L15.8474 27.6808L15.9443 27.6862L16.0413 27.6907L16.1383 27.6942L16.2351 27.6967L16.3319 27.6983L16.4286 27.6989L16.5253 27.6985L16.6219 27.6972L16.7184 27.695L16.8147 27.6917L16.9111 27.6876L17.0072 27.6824L17.1032 27.6763L17.199 27.6693L17.2947 27.6613L17.3902 27.6524L17.4856 27.6425L17.5809 27.6317L17.6759 27.62L17.7707 27.6073L17.8653 27.5938L17.9597 27.5793L18.0538 27.5638L18.1476 27.5475L18.2413 27.5301L18.3347 27.512L18.4279 27.4929L18.5208 27.4729L18.6133 27.4519L18.7056 27.4302L18.7976 27.4074L18.8893 27.3839L18.9806 27.3594L19.0717 27.334L19.1624 27.3077L19.2527 27.2806L19.3427 27.2526L19.4323 27.2237L19.5216 27.194L19.6104 27.1634L19.6989 27.1319L19.787 27.0996L19.8747 27.0665L19.9619 27.0325L20.0488 26.9976L20.1352 26.9619L20.2212 26.9254L20.3067 26.8881L20.3918 26.8501L20.4764 26.8111L20.5606 26.7713L20.6443 26.7308L20.7273 26.6896L20.8102 26.6473L20.8923 26.6045L20.9741 26.5607L21.0551 26.5163L21.1357 26.4711L21.2159 26.4251L21.2954 26.3784L21.3745 26.3309L21.453 26.2827L21.5308 26.2337L21.6083 26.184L21.6849 26.1337L21.7611 26.0825L21.8368 26.0306L21.9117 25.978L21.986 25.9249L22.06 25.8709L22.1331 25.8164L22.2056 25.761L22.2776 25.705L22.3487 25.6485L22.4195 25.5911L22.4896 25.5332L22.5587 25.4747L22.6276 25.4153L22.6956 25.3555L22.7629 25.2952L22.8297 25.2339L22.8956 25.1723L22.9609 25.11L23.0256 25.0471L23.0894 24.9837L23.1527 24.9196L23.2152 24.855L23.2771 24.7898L23.338 24.7241L23.3984 24.6578L23.4581 24.591L23.5169 24.5238L23.5752 24.4558L23.6325 24.3874L23.6891 24.3186L23.7451 24.2491L23.8002 24.1794L23.8546 24.1089L23.9082 24.0381L23.9611 23.9667L24.0131 23.8949L24.0643 23.8229L24.1149 23.75L24.1646 23.677L24.2136 23.6035L24.2618 23.5294L24.309 23.4552L24.3556 23.3804L24.4013 23.3052L24.4463 23.2297L24.4904 23.1538L24.5338 23.0774L24.5762 23.001L24.6179 22.9238L24.6588 22.8466L24.6987 22.769L24.738 22.6908L24.7763 22.6127L24.8139 22.5338L24.8504 22.4552L24.8865 22.3757L24.9213 22.2964L24.9556 22.2164L24.989 22.1365L25.0214 22.0563L25.0531 21.9757L25.0839 21.8949L25.1137 21.8141L25.1429 21.7327L25.171 21.6513L25.1984 21.5697L25.2249 21.4878L25.2506 21.4057L25.2755 21.3235L25.2994 21.2412L25.3224 21.1586L25.3446 21.076L25.366 20.9931L25.3864 20.9102L25.4061 20.8272L25.4248 20.7438L25.4427 20.6605L25.4598 20.5771L25.4759 20.4938L25.4912 20.4102L25.5056 20.3263L25.5192 20.2428L25.5319 20.1589L25.5437 20.075L25.5546 19.9913L25.5647 19.9074L25.574 19.8233L25.5823 19.7397L25.5899 19.6555L25.5965 19.5716L25.6023 19.4879L25.6072 19.4039L25.6113 19.3201L25.6145 19.2364L25.6168 19.1524L25.6183 19.0689L25.6189 18.9851L25.6187 18.9015L25.6177 18.818L25.6157 18.7348L25.613 18.6514L25.6093 18.5682L25.6049 18.4853L25.5996 18.4022L25.5934 18.3193L25.5865 18.2368L25.5787 18.1541L25.57 18.0719L25.5605 17.9896L25.5502 17.9076L25.5391 17.8258L25.5272 17.744L25.5144 17.6626L25.5008 17.5814L25.4864 17.5004L25.4712 17.4196L25.4551 17.3388L25.4382 17.2586L25.4206 17.1786L25.4022 17.0987L25.3829 17.019L25.3629 16.9399L25.3421 16.8606L25.3205 16.782L25.2981 16.7034L25.2749 16.6254L25.251 16.5475L25.2263 16.4699L25.2008 16.3928L25.1747 16.3159L25.1475 16.2392L25.1199 16.1631L25.0914 16.0872L25.0621 16.0118L25.0322 15.9366L25.0014 15.8617L24.97 15.7875L24.9378 15.7134L24.9049 15.6398L24.8713 15.5667L24.837 15.4938L24.8019 15.4213L24.7662 15.3495L24.7297 15.2778L24.6926 15.2068L24.6548 15.1363L24.6163 15.0658L24.5772 14.9962L24.5373 14.9269L24.4968 14.8581L24.4555 14.7896L24.4138 14.7218L24.3712 14.6543L24.3282 14.5874L24.2844 14.5211L24.24 14.4552L24.1949 14.3897L24.1492 14.3248L24.1031 14.2605L24.0561 14.1965L24.0087 14.1333L23.9605 14.0705L23.912 14.0083L23.8627 13.9465L23.8128 13.8854L23.7624 13.8248L23.7114 13.7647L23.66 13.7054L23.6077 13.6464L23.5552 13.5882L23.502 13.5304L23.4484 13.4734L23.394 13.4167L23.3394 13.3609L23.284 13.3054L23.2282 13.2507L23.172 13.1967L23.1153 13.1431L23.0579 13.0902L23.0002 13.038L22.942 12.9864L22.8831 12.9352L22.8243 12.8851L22.7645 12.8352L22.7045 12.7861L22.644 12.7378L22.5831 12.6898L22.5218 12.6427L22.4602 12.5964L22.3979 12.5505L22.3352 12.5052L22.2724 12.4609L22.2088 12.417L22.1453 12.374L22.0813 12.3315L22.0168 12.2897L21.9518 12.2486L21.8868 12.2083L21.8211 12.1685L21.7554 12.1296L21.689 12.0912L21.6227 12.0537L21.5559 12.0168L21.4887 11.9805L21.4212 11.945L21.3536 11.9103L21.2856 11.8761L21.2172 11.8427L21.1487 11.8101L21.0801 11.7782L21.0107 11.7468L20.9416 11.7164L20.8721 11.6866L20.8022 11.6575L20.7322 11.6292L20.6621 11.6017L20.5917 11.5748L20.5209 11.5485L20.4503 11.5232L20.3792 11.4985L20.308 11.4745L20.2368 11.4513L20.1653 11.4288L20.0938 11.4071L20.0217 11.386L19.9499 11.3658L19.8779 11.3462L19.8057 11.3274L19.7335 11.3093L19.6609 11.292L19.5885 11.2754L19.516 11.2596L19.4433 11.2445L19.3704 11.23L19.2979 11.2165L19.2248 11.2036L19.152 11.1914L19.0788 11.18L19.0061 11.1693L18.9327 11.1593L18.8599 11.1502L18.7868 11.1417L18.7137 11.134L18.6407 11.127L18.5675 11.1207L18.4947 11.1152L18.4214 11.1104L18.3485 11.1064L18.2757 11.103L18.2024 11.1004L18.1298 11.0985L18.057 11.0974L17.9843 11.097L17.9347 11.0972L17.9723 14.3063L17.9948 14.3063L18.0365 14.3069L18.0784 14.308L18.1203 14.3093L18.1623 14.3113L18.2043 14.3136L18.2463 14.3163L18.2884 14.3195L18.3305 14.3232L18.3727 14.3273L18.4149 14.3318L18.4571 14.3367L18.4994 14.3421L18.5416 14.348L18.5838 14.3543L18.6261 14.3611L18.6684 14.3683L18.7106 14.376L18.7528 14.3841L18.795 14.3926L18.8372 14.4017L18.8794 14.4112L18.9216 14.4211L18.9636 14.4315L19.0057 14.4423L19.0477 14.4536L19.0897 14.4653L19.1316 14.4775L19.1735 14.4901L19.2152 14.5032L19.2569 14.5168L19.2986 14.5308L19.3401 14.5453L19.3816 14.5602L19.423 14.5755L19.4643 14.5914L19.5054 14.6076L19.5465 14.6243L19.5875 14.6415L19.6283 14.6591L19.6691 14.6772L19.7096 14.6957L19.7501 14.7147L19.7905 14.7342L19.8307 14.754L19.8707 14.7743L19.9106 14.7951L19.9503 14.8163L19.9899 14.8379L20.0293 14.86L20.0685 14.8826L20.1076 14.9055L20.1464 14.9289L20.1852 14.9528L20.2237 14.9771L20.262 15.0018L20.3 15.0269L20.3379 15.0525L20.3757 15.0786L20.4131 15.105L20.4504 15.1319L20.4874 15.1592L20.5242 15.1869L20.5608 15.215L20.5971 15.2436L20.6332 15.2725L20.669 15.302L20.7045 15.3317L20.7399 15.362L20.7749 15.3926L20.8097 15.4236L20.8442 15.455L20.8784 15.4869L20.9123 15.5191L20.9459 15.5518L20.9794 15.5848L21.0124 15.6182L21.0451 15.6521L21.0776 15.6862L21.1097 15.7208L21.1416 15.7559L21.1731 15.7912L21.2043 15.8269L21.2351 15.863L21.2656 15.8995L21.2958 15.9363L21.3256 15.9735L21.3551 16.0111L21.3843 16.049L21.4131 16.0874L21.4415 16.1259L21.4696 16.165L21.4972 16.2042L21.5245 16.2439L21.5515 16.284L21.578 16.3243L21.6042 16.365L21.6301 16.406L21.6554 16.4473L21.6804 16.489L21.705 16.531L21.7292 16.5732L21.753 16.6158L21.7763 16.6587L21.7993 16.7019L21.8219 16.7454L21.844 16.7892L21.8657 16.8332L21.8869 16.8776L21.9077 16.9223L21.9281 16.9672L21.948 17.0124L21.9676 17.0579L21.9866 17.1036L22.0052 17.1496L22.0233 17.1958L22.041 17.2423L22.0583 17.2891L22.075 17.3361L22.0913 17.3834L22.1071 17.4308L22.1224 17.4785L22.1373 17.5264L22.1517 17.5745L22.1656 17.6229L22.1789 17.6715L22.1919 17.7202L22.2044 17.7692L22.2163 17.8184L22.2277 17.8678L22.2387 17.9172L22.2491 17.967L22.259 18.0169L22.2684 18.0669L22.2773 18.1172L22.2857 18.1676L22.2936 18.2181L22.301 18.2689L22.3078 18.3197L22.3141 18.3707L22.3199 18.4219L22.3252 18.4731L22.3299 18.5245L22.3341 18.576L22.3379 18.6277L22.341 18.6793L22.3436 18.7312L22.3456 18.7831L22.3472 18.8352L22.3481 18.8873L22.3486 18.9394L22.3485 18.9916L22.3479 19.044L22.3467 19.0964L22.3449 19.1489L22.3427 19.2014L22.3398 19.2539L22.3364 19.3066L22.3325 19.3592L22.3279 19.4119L22.3229 19.4646L22.3173 19.5173L22.3111 19.57L22.3043 19.6228L22.2971 19.6755L22.2893 19.7282L22.2808 19.7809L22.2718 19.8336L22.2623 19.8863L22.2522 19.939L22.2416 19.9917L22.2303 20.0443L22.2185 20.0968L22.2062 20.1493L22.1933 20.2018L22.1798 20.2542L22.1658 20.3065L22.1512 20.3588L22.136 20.4109L22.1203 20.463L22.104 20.515L22.0872 20.5669L22.0697 20.6187L22.0518 20.6704L22.0332 20.7219L22.0141 20.7734L21.9944 20.8247L21.9742 20.8759L21.9534 20.9269L21.9321 20.9778L21.9102 21.0286L21.8877 21.0792L21.8648 21.1296L21.8412 21.1799L21.817 21.23L21.7924 21.2799L21.7672 21.3296L21.7414 21.3792L21.715 21.4285L21.6882 21.4776L21.6608 21.5266L21.6328 21.5753L21.6043 21.6238L21.5753 21.672L21.5457 21.7201L21.5156 21.7679L21.485 21.8154L21.4537 21.8628L21.4221 21.9098L21.3898 21.9566L21.3571 22.0031L21.3237 22.0493L21.2899 22.0953L21.2556 22.141L21.2207 22.1864L21.1853 22.2315L21.1495 22.2763L21.1131 22.3207L21.0762 22.3649L21.0388 22.4088L21.0008 22.4523L20.9624 22.4955L20.9235 22.5384L20.8841 22.5809L20.8443 22.6231L20.8039 22.665L20.763 22.7065L20.7217 22.7475L20.6799 22.7883L20.6376 22.8287L20.5948 22.8687L20.5516 22.9083L20.5079 22.9475L20.4637 22.9864L20.4191 23.0248L20.3741 23.0628L20.3285 23.1005L20.2825 23.1377L20.2361 23.1744L20.1893 23.2108L20.1421 23.2467L20.0943 23.2823L20.0462 23.3173L19.9976 23.3519L19.9487 23.3861L19.8993 23.4198L19.8495 23.4531L19.7993 23.4858L19.7487 23.5182L19.6977 23.5501L19.6463 23.5815L19.5945 23.6123L19.5424 23.6428L19.4899 23.6727L19.4369 23.7021L19.3837 23.7311L19.33 23.7595L19.276 23.7874L19.2216 23.8148L19.167 23.8417L19.1119 23.8681L19.0565 23.8939L19.0008 23.9193L18.9448 23.944L18.8884 23.9683L18.8317 23.992L18.7747 24.0151L18.7174 24.0377L18.6598 24.0598L18.6019 24.0814L18.5437 24.1023L18.4852 24.1227L18.4264 24.1426L18.3674 24.1618L18.3081 24.1805L18.2486 24.1986L18.1887 24.2162L18.1287 24.2331L18.0684 24.2495L18.0078 24.2652L17.947 24.2804L17.886 24.295L17.8248 24.309L17.7633 24.3223L17.7016 24.3352L17.6397 24.3473L17.5777 24.3589L17.5155 24.3698L17.453 24.3802L17.3904 24.3899L17.3276 24.399L17.2647 24.4075L17.2015 24.4154L17.1383 24.4226L17.0749 24.4292L17.0113 24.4352L16.9476 24.4405L16.8838 24.4452L16.8198 24.4492L16.7558 24.4527L16.6916 24.4555L16.6274 24.4576L16.5629 24.4591L16.4985 24.4599L16.434 24.4602L16.3694 24.4598L16.3048 24.4587L16.24 24.4569L16.1752 24.4545L16.1104 24.4514L16.0455 24.4477L15.9805 24.4434L15.9156 24.4384L15.8507 24.4327L15.7857 24.4263L15.7208 24.4193L15.6557 24.4116L15.5908 24.4032L15.5258 24.3942L15.4609 24.3846L15.396 24.3743L15.3311 24.3633L15.2663 24.3517L15.2015 24.3393L15.1368 24.3264L15.0721 24.3127L15.0075 24.2984L14.943 24.2834L14.8786 24.2678L14.8141 24.2515L14.7499 24.2345L14.6858 24.2168L14.6217 24.1986L14.5579 24.1796L14.4941 24.16L14.4304 24.1397L14.3669 24.1188L14.3035 24.0972L14.2403 24.0749L14.1773 24.0519L14.1144 24.0283L14.0517 24.0041L13.9891 23.9792L13.9268 23.9536L13.8647 23.9274L13.8028 23.9006L13.7411 23.873L13.6795 23.8449L13.6183 23.8161L13.5571 23.7866L13.4963 23.7565L13.4358 23.7257L13.3755 23.6943L13.3155 23.6623L13.2557 23.6297L13.1961 23.5963L13.1369 23.5624L13.0779 23.5278L13.0193 23.4926L12.9609 23.4569L12.9029 23.4204L12.8451 23.3833L12.7877 23.3457L12.7306 23.3073L12.6739 23.2684L12.6175 23.2289L12.5614 23.1888L12.5057 23.1481L12.4504 23.1067L12.3954 23.0648L12.3408 23.0222L12.2866 22.9791L12.2328 22.9354L12.1793 22.8911L12.1262 22.8462L12.0736 22.8007L12.0214 22.7547L11.9696 22.7081L11.9182 22.6609L11.8673 22.6131L11.8168 22.5649L11.7667 22.516L11.7171 22.4666L11.668 22.4166L11.6193 22.3661L11.571 22.3151L11.5233 22.2635L11.476 22.2114L11.4293 22.1587L11.383 22.1056L11.3373 22.0519L11.292 21.9977L11.2472 21.943L11.2029 21.8878L11.1592 21.8321L11.116 21.7759L11.0733 21.7192L11.0312 21.662L10.9897 21.6044L10.9487 21.5462L10.9082 21.4876L10.8683 21.4285L10.829 21.369L10.7902 21.309L10.7521 21.2486L10.7144 21.1877L10.6775 21.1264L10.641 21.0646L10.6052 21.0025L10.57 20.9398L10.5354 20.8769L10.5014 20.8134L10.468 20.7496L10.4353 20.6853L10.4031 20.6207L10.3716 20.5558L10.3408 20.4904L10.3106 20.4247L10.281 20.3585L10.2521 20.292L10.2238 20.2252L10.1962 20.158L10.1693 20.0904L10.143 20.0226L10.1174 19.9543L10.0925 19.8858L10.0683 19.817L10.0447 19.7479L10.0218 19.6784L9.99966 19.6087L9.97819 19.5386L9.95739 19.4683L9.93726 19.3977L9.91789 19.3268L9.89928 19.2556L9.88126 19.1842L9.86408 19.1126L9.84758 19.0408L9.83175 18.9686L9.81667 18.8963L9.80236 18.8237L9.78872 18.7509L9.77583 18.6779L9.76371 18.6047L9.75234 18.5314L9.74164 18.4578L9.73171 18.3841L9.72261 18.3101L9.71419 18.2361L9.70653 18.1618L9.69962 18.0874L9.69347 18.0129L9.68808 17.9382L9.68345 17.8634L9.67958 17.7885L9.67646 17.7136L9.67411 17.6384L9.67259 17.5632L9.67183 17.488L9.67175 17.4126L9.67251 17.3371L9.67411 17.2616L9.67638 17.1861L9.67949 17.1104L9.68337 17.0348L9.688 16.9591L9.69339 16.8834L9.69962 16.8076L9.70661 16.7319L9.71436 16.6562L9.72295 16.5804L9.7323 16.5047L9.7424 16.4291L9.75335 16.3534L9.76505 16.2778L9.7776 16.2022L9.79082 16.1266L9.80488 16.0511L9.81979 15.9758L9.83545 15.9004L9.85187 15.8252L9.86905 15.7501L9.88707 15.6751L9.90585 15.6001L9.92547 15.5253L9.94585 15.4507L9.96699 15.3762L9.98888 15.3017L10.0116 15.2275L10.0351 15.1534L10.0594 15.0794L10.0845 15.0057L10.1103 14.9321L10.1369 14.8588L10.1643 14.7856L10.1925 14.7127L10.2215 14.6399L10.2512 14.5673L10.2817 14.495L10.3129 14.423L10.345 14.3511L10.3778 14.2796L10.4114 14.2083L10.4456 14.1373L10.4808 14.0665L10.5165 13.996L10.5532 13.9259L10.5905 13.856L10.6286 13.7865L10.6675 13.7172L10.707 13.6483L10.7474 13.5798L10.7885 13.5115L10.8302 13.4436L10.8728 13.3761L10.9161 13.3089L10.9601 13.2421L11.0048 13.1757L11.0503 13.1096L11.0964 13.044L11.1433 12.9788L11.1909 12.914L11.2392 12.8495L11.2882 12.7856L11.3379 12.722L11.3883 12.659L11.4394 12.5962L11.4911 12.5341L11.5436 12.4723L11.5967 12.411L11.6505 12.3502L11.705 12.2899L11.7602 12.2301L11.816 12.1708L11.8725 12.112L11.9296 12.0537L11.9874 11.9959L12.0458 11.9386L12.1048 11.8819L12.1645 11.8257L12.2248 11.77L12.2857 11.715L12.3473 11.6604L12.4095 11.6065L12.4723 11.553L12.5357 11.5002L12.5996 11.4481L12.6642 11.3964L12.7293 11.3454L12.795 11.295L12.8613 11.2452L12.9282 11.1959L12.9956 11.1474L13.0636 11.0995L13.1321 11.0521L13.2013 11.0055L13.2708 10.9595L13.341 10.9142L13.4117 10.8695L13.4829 10.8254L13.5546 10.7821L13.6268 10.7394L13.6995 10.6974L13.7727 10.6561L13.8464 10.6155L13.9206 10.5756L13.9952 10.5364L14.0703 10.4979L14.1459 10.4602L14.2219 10.4231L14.2984 10.3868L14.3752 10.3512L14.4525 10.3164L14.5303 10.2823L14.6085 10.2489L14.6871 10.2162L14.766 10.1844L14.8454 10.1533L14.9251 10.123L15.0052 10.0934L15.0857 10.0647L15.1667 10.0366L15.2478 10.0094L15.3294 9.983L15.4113 9.95733L15.4936 9.93251L15.5761 9.90845L15.6589 9.88525L15.7421 9.86281L15.8256 9.84113L15.9094 9.82031L15.9934 9.80033L16.0778 9.78121L16.1624 9.76284L16.2472 9.74534L16.3323 9.72868L16.375 9.72069ZM17.4208 15.8919L16.4502 16.126L16.3932 11.273L16.3475 11.2833L16.2786 11.2997L16.2098 11.3168L16.1415 11.3345L16.0733 11.3529L16.0055 11.3719L15.9377 11.3917L15.8706 11.4119L15.8033 11.433L15.7368 11.4545L15.6702 11.4769L15.604 11.4998L15.5382 11.5234L15.4726 11.5475L15.4076 11.5722L15.3427 11.5977L15.2781 11.6238L15.2139 11.6504L15.1498 11.6777L15.0866 11.7054L15.0233 11.734L14.9607 11.763L14.8981 11.7927L14.8361 11.8229L14.7743 11.8538L14.7132 11.8851L14.6523 11.9171L14.5918 11.9496L14.5318 11.9827L14.4721 12.0164L14.4128 12.0506L14.3542 12.0853L14.2955 12.1207L14.2376 12.1565L14.1801 12.1929L14.123 12.2298L14.0663 12.2673L14.0101 12.3053L13.9544 12.3438L13.899 12.3827L13.8443 12.4222L13.7898 12.4622L13.7359 12.5027L13.6825 12.5437L13.6296 12.5852L13.5772 12.627L13.5253 12.6694L13.4738 12.7123L13.4227 12.7558L13.3724 12.7995L13.3224 12.8438L13.273 12.8884L13.2241 12.9335L13.1757 12.9792L13.1278 13.0251L13.0805 13.0715L13.0336 13.1184L12.9874 13.1656L12.9416 13.2133L12.8965 13.2612L12.8517 13.3098L12.8077 13.3585L12.7641 13.4077L12.7211 13.4574L12.6787 13.5072L12.6368 13.5576L12.5956 13.6081L12.5548 13.6592L12.5147 13.7105L12.475 13.7623L12.436 13.8144L12.3976 13.8666L12.3597 13.9193L12.3225 13.9722L12.2858 14.0256L12.2497 14.0791L12.2142 14.1331L12.1794 14.1872L12.1451 14.2416L12.1113 14.2964L12.0783 14.3513L12.0457 14.4067L12.0139 14.4621L11.9826 14.5179L11.9518 14.5739L11.9219 14.6301L11.8924 14.6866L11.8636 14.7432L11.8353 14.8003L11.8077 14.8572L11.7807 14.9147L11.7544 14.9722L11.7287 15.0299L11.7035 15.0878L11.679 15.1459L11.6552 15.204L11.6319 15.2625L11.6093 15.3211L11.5873 15.3798L11.566 15.4386L11.5453 15.4976L11.5251 15.5568L11.5057 15.616L11.4868 15.6754L11.4686 15.7349L11.451 15.7945L11.4342 15.8541L11.4179 15.914L11.4021 15.9739L11.3871 16.0338L11.3727 16.0938L11.3589 16.1539L11.3458 16.2141L11.3333 16.2744L11.3214 16.3345L11.3101 16.3948L11.2995 16.4552L11.2896 16.5155L11.2803 16.5758L11.2715 16.6364L11.2634 16.6966L11.256 16.7572L11.2492 16.8174L11.2429 16.8779L11.2374 16.9384L11.2324 16.9986L11.2281 17.059L11.2244 17.1193L11.2213 17.1795L11.2189 17.2397L11.217 17.2998L11.2158 17.36L11.2152 17.42L11.2152 17.4799L11.2158 17.5398L11.2171 17.5996L11.2189 17.6593L11.2214 17.7188L11.2244 17.7783L11.2281 17.8377L11.2324 17.8969L11.2373 17.9561L11.2428 18.0151L11.2488 18.0741L11.2555 18.1326L11.2627 18.1914L11.2706 18.2497L11.2791 18.3081L11.2881 18.3661L11.2977 18.4241L11.3079 18.482L11.3187 18.5395L11.33 18.597L11.3419 18.6541L11.3544 18.7112L11.3675 18.768L11.3811 18.8247L11.3953 18.881L11.4101 18.9373L11.4253 18.9932L11.4412 19.049L11.4576 19.1044L11.4745 19.1598L11.492 19.2148L11.5101 19.2694L11.5287 19.3241L11.5478 19.3783L11.5674 19.4322L11.5875 19.486L11.6083 19.5395L11.6295 19.5926L11.6512 19.6455L11.6733 19.698L11.6962 19.7503L11.7194 19.8024L11.7432 19.854L11.7674 19.9054L11.7921 19.9564L11.8174 20.0073L11.843 20.0576L11.8692 20.1077L11.8959 20.1575L11.9231 20.2069L11.9507 20.256L11.9788 20.3048L12.0073 20.3531L12.0364 20.4012L12.0658 20.4489L12.0957 20.4961L12.1261 20.5431L12.1568 20.5897L12.188 20.636L12.2196 20.6817L12.2517 20.7273L12.2842 20.7723L12.3171 20.8169L12.3505 20.8613L12.3842 20.9052L12.4183 20.9486L12.4528 20.9917L12.4877 21.0344L12.5229 21.0766L12.5587 21.1185L12.5948 21.16L12.6312 21.201L12.6681 21.2416L12.7052 21.2816L12.7427 21.3215L12.7806 21.3608L12.8188 21.3996L12.8574 21.438L12.8963 21.476L12.9356 21.5136L12.9752 21.5506L13.0151 21.5873L13.0553 21.6235L13.0958 21.6592L13.1367 21.6945L13.1778 21.7293L13.2192 21.7637L13.261 21.7976L13.3031 21.831L13.3453 21.8639L13.3879 21.8963L13.4307 21.9284L13.4739 21.9599L13.5172 21.9909L13.5608 22.0215L13.6047 22.0516L13.6488 22.0812L13.6931 22.1103L13.7377 22.1389L13.7827 22.1672L13.8276 22.1947L13.8728 22.2219L13.9184 22.2486L13.964 22.2747L14.0098 22.3003L14.056 22.3256L14.1022 22.3502L14.1486 22.3744L14.1952 22.398L14.2421 22.4212L14.2889 22.4438L14.3362 22.466L14.3834 22.4877L14.4307 22.5088L14.4784 22.5294L14.5261 22.5496L14.5739 22.5692L14.6219 22.5883L14.67 22.6069L14.7183 22.625L14.7665 22.6426L14.8151 22.6596L14.8635 22.6761L14.9121 22.6922L14.9608 22.7078L15.0097 22.7228L15.0585 22.7372L15.1075 22.7513L15.1565 22.7647L15.2056 22.7777L15.2547 22.7901L15.3039 22.8021L15.3531 22.8135L15.4024 22.8244L15.4517 22.8348L15.5011 22.8447L15.5504 22.8541L15.5997 22.863L15.6492 22.8714L15.6986 22.8792L15.748 22.8866L15.7973 22.8934L15.8467 22.8997L15.8961 22.9055L15.9455 22.9109L15.9949 22.9157L16.0442 22.92L16.0935 22.9238L16.1427 22.9271L16.1919 22.9299L16.241 22.9322L16.29 22.9341L16.3392 22.9354L16.388 22.9362L16.4369 22.9366L16.4857 22.9364L16.5344 22.9358L16.5832 22.9346L16.6317 22.933L16.6801 22.931L16.7284 22.9283L16.7768 22.9253L16.8248 22.9217L16.8729 22.9177L16.9208 22.9132L16.9686 22.9083L17.0163 22.9027L17.0637 22.8969L17.1112 22.8905L17.1583 22.8836L17.2053 22.8763L17.2524 22.8686L17.2991 22.8603L17.3457 22.8517L17.3922 22.8425L17.4385 22.8329L17.4845 22.8228L17.5303 22.8124L17.5761 22.8014L17.6216 22.79L17.6669 22.7783L17.7121 22.7661L17.757 22.7534L17.8019 22.7402L17.8463 22.7267L17.8904 22.7128L17.9347 22.6983L17.9785 22.6835L18.0221 22.6684L18.0655 22.6528L18.1086 22.6367L18.1517 22.6202L18.1944 22.6034L18.2367 22.5861L18.2789 22.5685L18.3208 22.5504L18.3626 22.532L18.4039 22.5132L18.4451 22.494L18.486 22.4744L18.5265 22.4545L18.5669 22.4341L18.6068 22.4135L18.6467 22.3924L18.6861 22.3709L18.7253 22.3491L18.7641 22.327L18.8028 22.3045L18.8411 22.2816L18.879 22.2584L18.9166 22.2349L18.954 22.211L18.9911 22.1869L19.0279 22.1623L19.0643 22.1375L19.1004 22.1122L19.1362 22.0867L19.1715 22.061L19.2067 22.0348L19.2414 22.0084L19.2759 21.9816L19.31 21.9546L19.3438 21.9272L19.3772 21.8997L19.4103 21.8718L19.4429 21.8436L19.4753 21.8151L19.5074 21.7864L19.539 21.7573L19.5704 21.728L19.6012 21.6985L19.6318 21.6687L19.6621 21.6386L19.692 21.6084L19.7214 21.5778L19.7505 21.547L19.7792 21.5161L19.8077 21.4847L19.8355 21.4533L19.8632 21.4215L19.8904 21.3896L19.9172 21.3575L19.9438 21.3251L19.9698 21.2926L19.9955 21.2598L20.0209 21.2269L20.0457 21.1937L20.0703 21.1603L20.0944 21.1269L20.1181 21.0931L20.1416 21.0592L20.1645 21.0253L20.187 20.9909L20.2093 20.9566L20.2309 20.9221L20.2523 20.8874L20.2733 20.8525L20.2938 20.8175L20.314 20.7824L20.3337 20.7471L20.3531 20.7118L20.372 20.6762L20.3906 20.6406L20.4087 20.6048L20.4264 20.569L20.4438 20.533L20.4607 20.4968L20.4772 20.4607L20.4933 20.4244L20.509 20.3881L20.5243 20.3516L20.5391 20.3151L20.5537 20.2783L20.5677 20.2418L20.5814 20.2048L20.5945 20.1683L20.6074 20.1312L20.6199 20.0942L20.6318 20.0573L20.6435 20.0202L20.6547 19.9832L20.6655 19.9458L20.6758 19.909L20.6859 19.8715L20.6954 19.8346L20.7046 19.7972L20.7133 19.7598L20.7217 19.7226L20.7296 19.6856L20.7372 19.648L20.7443 19.6109L20.7511 19.5734L20.7574 19.5363L20.7634 19.4991L20.7689 19.4618L20.7741 19.4245L20.7788 19.3872L20.7832 19.3502L20.7871 19.3132L20.7907 19.2759L20.7939 19.2389L20.7966 19.2018L20.799 19.1649L20.801 19.128L20.8026 19.0912L20.8038 19.0545L20.8046 19.0176L20.8051 18.9808L20.8052 18.9444L20.8049 18.9079L20.8042 18.8715L20.8031 18.8352L20.8017 18.7988L20.7998 18.763L20.7976 18.7264L20.7951 18.6908L20.7922 18.655L20.7889 18.619L20.7852 18.5834L20.7812 18.5481L20.7768 18.5123L20.772 18.4773L20.7669 18.442L20.7615 18.4073L20.7556 18.3722L20.7495 18.3373L20.743 18.3028L20.7362 18.2684L20.7289 18.2339L20.7213 18.1998L20.7135 18.1657L20.7053 18.1319L20.6968 18.0983L20.6877 18.0645L20.6787 18.0313L20.6691 17.9978L20.6592 17.9649L20.649 17.932L20.6385 17.8994L20.6276 17.8668L20.6164 17.8344L20.6051 17.8024L20.5933 17.7705L20.5811 17.7386L20.5688 17.7071L20.556 17.6755L20.5432 17.6446L20.5298 17.6134L20.5163 17.5828L20.5024 17.5523L20.4883 17.5219L20.4739 17.4918L20.4591 17.4619L20.4441 17.4321L20.4289 17.4027L20.4133 17.3735L20.3976 17.3445L20.3815 17.3157L20.3651 17.2871L20.3485 17.2588L20.3317 17.2308L20.3145 17.2028L20.2972 17.1754L20.2796 17.148L20.2617 17.1209L20.2436 17.0939L20.2253 17.0674L20.2067 17.041L20.188 17.0149L20.1689 16.989L20.1496 16.9635L20.1303 16.9381L20.1105 16.913L20.0906 16.8882L20.0705 16.8637L20.0502 16.8394L20.0296 16.8153L20.009 16.7916L19.988 16.7681L19.9669 16.7449L19.9456 16.7219L19.9241 16.6993L19.9024 16.6769L19.8805 16.6547L19.8585 16.633L19.8363 16.6115L19.814 16.5902L19.7912 16.5691L19.7687 16.5485L19.7458 16.528L19.7228 16.5079L19.6995 16.488L19.6762 16.4686L19.6527 16.4493L19.6291 16.4303L19.6054 16.4116L19.5815 16.3932L19.5575 16.3752L19.5333 16.3573L19.509 16.3398L19.4846 16.3226L19.4601 16.3056L19.4355 16.2891L19.4108 16.2727L19.3859 16.2567L19.361 16.241L19.3358 16.2255L19.3107 16.2103L19.2856 16.1956L19.2602 16.181L19.2347 16.1667L19.2093 16.1528L19.1837 16.1391L19.1581 16.1258L19.1325 16.1128L19.1065 16.0999L19.0808 16.0875L19.0548 16.0755L19.0289 16.0636L19.0029 16.052L18.9767 16.0407L18.9507 16.0298L18.9245 16.0192L18.8982 16.0088L18.872 15.9988L18.8457 15.989L18.8195 15.9796L18.7931 15.9704L18.7667 15.9615L18.7405 15.953L18.714 15.9446L18.6876 15.9367L18.6613 15.929L18.6347 15.9216L18.6084 15.9146L18.582 15.9078L18.5555 15.9012L18.5291 15.895L18.5027 15.8891L18.4763 15.8834L18.4499 15.8781L18.4237 15.873L18.3974 15.8682L18.3709 15.8637L18.3448 15.8596L18.3184 15.8556L18.2924 15.852L18.2661 15.8486L18.24 15.8455L18.2141 15.8427L18.188 15.8403L18.162 15.838L18.1361 15.836L18.1102 15.8343L18.0844 15.8329L18.0586 15.8318L18.0331 15.8309L18.0074 15.8302L17.9819 15.8299L17.9564 15.8298L17.931 15.8301L17.9057 15.8305L17.8805 15.8312L17.8553 15.8322L17.8304 15.8334L17.8053 15.8349L17.7805 15.8366L17.7558 15.8386L17.7311 15.8409L17.7066 15.8433L17.682 15.846L17.6578 15.849L17.6335 15.8522L17.6094 15.8557L17.5853 15.8595L17.5615 15.8634L17.5377 15.8675L17.5142 15.872L17.4905 15.8766L17.4672 15.8815L17.4439 15.8866L17.4208 15.8919Z" fill="white"/>
</svg>
